<!-- Generated device preview for garethpaul/android-wearmessageapi -->
<svg xmlns="http://www.w3.org/2000/svg" width="1200" height="675" viewBox="0 0 1200 675" role="img" aria-labelledby="d4e6szr-title d4e6szr-desc">
  <title id="d4e6szr-title">Android Wearmessageapi device preview</title>
  <desc id="d4e6szr-desc">Android Wear preview for garethpaul/android-wearmessageapi. Generated screen preview.</desc>
  <defs>
    <linearGradient id="d4e6szr-bg" x1="0" y1="0" x2="1" y2="1"><stop offset="0%" stop-color="#dcfce7"/><stop offset="55%" stop-color="#f8fafc"/><stop offset="100%" stop-color="#cffafe"/></linearGradient>
    <linearGradient id="d4e6szr-device" x1="0" y1="0" x2="1" y2="1"><stop offset="0%" stop-color="#020617"/><stop offset="62%" stop-color="#0f2f2c"/><stop offset="100%" stop-color="#111827"/></linearGradient>
    <linearGradient id="d4e6szr-screen" x1="0" y1="0" x2="1" y2="1"><stop offset="0%" stop-color="#f0fdf4"/><stop offset="100%" stop-color="#ecfeff"/></linearGradient>
    <linearGradient id="d4e6szr-accent" x1="0" y1="0" x2="1" y2="1"><stop offset="0%" stop-color="#16a34a"/><stop offset="55%" stop-color="#0891b2"/><stop offset="100%" stop-color="#f59e0b"/></linearGradient>
    <filter id="d4e6szr-shadow" x="-20%" y="-20%" width="140%" height="150%"><feDropShadow dx="0" dy="24" stdDeviation="22" flood-color="#0f172a" flood-opacity="0.20"/></filter>
    <filter id="d4e6szr-softShadow" x="-20%" y="-20%" width="140%" height="150%"><feDropShadow dx="0" dy="12" stdDeviation="14" flood-color="#0f172a" flood-opacity="0.13"/></filter>
    <clipPath id="d4e6szr-watch-screen"><rect x="234" y="148" width="224" height="320" rx="56"/></clipPath>
    <style>.ui { font-family: ui-sans-serif, system-ui, -apple-system, BlinkMacSystemFont, "Segoe UI", sans-serif; letter-spacing: 0; }</style>
  </defs>
  <rect width="1200" height="675" fill="url(#d4e6szr-bg)"/>
  <path d="M0 560 C170 502 282 636 438 560 C612 476 732 420 908 474 C1052 518 1110 390 1200 344 L1200 675 L0 675Z" fill="#16a34a" opacity="0.08"/>
  <circle cx="1040" cy="118" r="180" fill="#0891b2" opacity="0.12"/>
  <circle cx="128" cy="586" r="168" fill="#f59e0b" opacity="0.12"/>
  <g class="ui">
    <g><rect x="284" y="20" width="124" height="98" rx="38" fill="#1f2937" opacity="0.94"/><rect x="284" y="500" width="124" height="104" rx="38" fill="#1f2937" opacity="0.94"/><rect x="190" y="84" width="312" height="448" rx="78" fill="url(#d4e6szr-device)" filter="url(#d4e6szr-shadow)"/><rect x="234" y="148" width="224" height="320" rx="56" fill="url(#d4e6szr-screen)"/><g clip-path="url(#d4e6szr-watch-screen)"><rect x="234" y="148" width="224" height="320" fill="url(#d4e6szr-screen)"/><rect x="234" y="148" width="224" height="54" fill="#111827" opacity="0.95"/><circle cx="268" cy="175" r="10" fill="#ffffff" opacity="0.92"/><text x="292" y="181" fill="#ffffff" font-size="18" font-weight="850">Android Wearmessageapi</text><rect x="262" y="230" width="168" height="64" rx="22" fill="#ffffff" opacity="0.93"/><rect x="286" y="258" width="85" height="14" rx="7" fill="#16a34a" opacity="0.82"/><rect x="286" y="288" width="123" height="12" rx="6" fill="#cbd5e1"/><rect x="356" y="258" width="46" height="46" rx="15" fill="#0891b2" opacity="0.72"/><rect x="262" y="310" width="76" height="58" rx="20" fill="#ffffff" opacity="0.84"/><rect x="354" y="310" width="76" height="58" rx="20" fill="#ffffff" opacity="0.84"/><path d="M286 380 C 297 338, 333 412, 373 370 S 422 388, 414 346" fill="none" stroke="#f59e0b" stroke-width="8" stroke-linecap="round" opacity="0.78"/><rect x="262" y="420" width="168" height="10" rx="5" fill="#cbd5e1" opacity="0.76"/></g><rect x="506" y="256" width="14" height="70" rx="7" fill="#111827"/></g>
    <g transform="translate(700 116)"><rect x="0" y="0" width="390" height="80" rx="24" fill="#ffffff" opacity="0.92" filter="url(#d4e6szr-softShadow)"/><circle cx="42" cy="40" r="18" fill="url(#d4e6szr-accent)"/><text x="76" y="34" fill="#64748b" font-size="14" font-weight="800" text-transform="uppercase">Android Wear preview</text><text x="76" y="58" fill="#0f172a" font-size="18" font-weight="850">Generated app screen</text></g>
    <g transform="translate(700 236)"><text x="0" y="0" fill="#0f172a" font-size="44" font-weight="850">Android</text>
<text x="0" y="52" fill="#0f172a" font-size="44" font-weight="850">Wearmessageapi</text><text x="2" y="220" fill="#475569" font-size="20" font-weight="560">An Android application or sample.</text>
<text x="2" y="250" fill="#475569" font-size="20" font-weight="560">Android Wear Message API Sample</text></g>
    <g transform="translate(700 496)"><rect x="0" y="0" width="390" height="82" rx="24" fill="#0f172a" opacity="0.95" filter="url(#d4e6szr-softShadow)"/><text x="28" y="34" fill="#cbd5e1" font-size="15" font-weight="750">garethpaul/android-wearmessageapi</text><text x="28" y="60" fill="#0891b2" font-size="15" font-weight="800">docs/device-preview.svg</text><circle cx="346" cy="41" r="16" fill="#16a34a"/><circle cx="366" cy="41" r="16" fill="#0891b2" opacity="0.86"/></g>
  </g>
</svg>
